<svg xmlns="http://www.w3.org/2000/svg" xmlns:xlink="http://www.w3.org/1999/xlink" version="1.1" width="256" height="256" viewBox="0 0 256 256" xml:space="preserve">
<desc>Created with Fabric.js 1.7.22</desc>
<defs>
</defs>
<g transform="translate(128 128) scale(0.72 0.72)" style="">
	<g style="stroke: none; stroke-width: 0; stroke-dasharray: none; stroke-linecap: butt; stroke-linejoin: miter; stroke-miterlimit: 10; fill: none; fill-rule: nonzero; opacity: 1;" transform="translate(-175.05 -175.05000000000004) scale(3.89 3.89)" >
	<rect x="0" y="0" rx="0" ry="0" width="90" height="90" style="stroke: none; stroke-width: 1; stroke-dasharray: none; stroke-linecap: butt; stroke-linejoin: miter; stroke-miterlimit: 10; fill: rgb(185,43,39); fill-rule: nonzero; opacity: 1;" transform=" matrix(1 0 0 1 0 0) "/>
	<path d="M 75.974 63.688 h -4.179 c -0.216 1.945 -1.511 4.424 -4.72 4.424 c -2.94 0 -5.052 -2.041 -7.103 -5.114 c 6.348 -4.916 10.716 -12.523 10.716 -21.883 c 0 -16.828 -13.862 -28.155 -28.397 -28.155 C 27.997 12.96 14 24.369 14 41.115 C 14 57.703 27.997 69.11 42.292 69.11 c 2.48 0 4.98 -0.348 7.333 -0.979 c 2.805 4.809 6.545 8.909 13.619 8.909 C 74.923 77.04 76.219 66.278 75.974 63.688 z M 55.425 55.473 c -2.769 -4.179 -6.257 -7.453 -13.053 -7.453 c -4.369 0 -7.767 1.431 -9.871 3.236 l 1.726 3.454 c 0.89 -0.406 1.86 -0.567 2.831 -0.567 c 5.081 0 7.685 4.414 9.906 8.784 c -1.42 0.414 -2.966 0.602 -4.672 0.602 c -10.736 0 -15.374 -7.579 -15.374 -22.413 c 0 -14.913 4.639 -22.571 15.374 -22.571 c 10.894 0 15.558 7.658 15.558 22.571 C 57.85 47.087 57.068 51.905 55.425 55.473 z" style="stroke: none; stroke-width: 1; stroke-dasharray: none; stroke-linecap: butt; stroke-linejoin: miter; stroke-miterlimit: 10; fill: rgb(255,255,255); fill-rule: nonzero; opacity: 1;" transform=" matrix(1 0 0 1 0 0) " stroke-linecap="round" />
</g>
</g>
</svg>