<svg fill="#000000" xmlns="http://www.w3.org/2000/svg"  viewBox="0 0 50 50" width="50px" height="50px"><path d="M 23.669922 1.90625 C 22.879812 1.920375 22.080187 1.9802031 21.273438 2.0957031 C 20.087438 2.3537031 18.941969 2.7705937 17.917969 3.3085938 C 16.627969 3.8945937 15.293891 4.4999375 14.087891 4.5859375 C 14.026891 4.5899375 13.967203 4.6002344 13.908203 4.6152344 C 12.222203 5.0502344 10.768031 6.0914844 9.8320312 7.5214844 L 9.6816406 7.7402344 C 9.6506406 7.7862344 9.6216563 7.8347656 9.5976562 7.8847656 C 8.7726563 9.6107656 8.5530469 11.587484 8.9980469 13.521484 C 9.2840469 14.456484 9.6250781 15.354609 9.9550781 16.224609 L 10.056641 16.488281 C 10.827641 18.297281 11.387656 20.197719 11.722656 22.136719 C 11.739656 22.234719 11.770453 22.329969 11.814453 22.417969 C 12.143453 23.069969 12.400891 23.756141 12.587891 24.494141 C 12.670891 24.783141 12.755656 25.079906 12.847656 25.378906 C 12.873656 25.463906 12.92375 25.533469 12.96875 25.605469 C 12.97075 25.710469 12.984531 25.815969 13.019531 25.917969 L 14.408203 29.890625 C 14.502203 30.160625 14.706703 30.376375 14.970703 30.484375 C 15.235703 30.592375 15.533063 30.582031 15.789062 30.457031 C 18.411062 29.183031 24.552391 26.200047 33.025391 31.498047 C 33.187391 31.599047 33.371641 31.650391 33.556641 31.650391 C 33.691641 31.650391 33.826125 31.624359 33.953125 31.568359 C 34.255125 31.437359 34.474109 31.16675 34.537109 30.84375 C 34.742109 29.80075 34.815047 28.126672 34.748047 26.763672 L 34.810547 26.464844 C 34.891547 26.069844 34.971641 25.669437 35.056641 25.273438 C 35.848641 23.511437 37.249469 21.808156 38.605469 20.160156 C 40.730469 17.577156 42.928281 14.906875 42.738281 11.921875 C 42.729281 11.785875 42.693813 11.65225 42.632812 11.53125 C 42.319812 10.91525 41.969156 10.315578 41.535156 9.6425781 L 41.451172 9.5078125 C 41.350172 9.3498125 41.248531 9.1939219 41.144531 9.0449219 C 41.066531 8.9329219 40.987203 8.8266563 40.908203 8.7226562 L 40.824219 8.609375 C 40.665219 8.397375 40.50675 8.1863281 40.34375 7.9863281 C 40.25575 7.8803281 40.168734 7.7794375 40.052734 7.6484375 C 39.871734 7.4404375 39.691813 7.2398281 39.507812 7.0488281 L 39.265625 6.8027344 C 39.052625 6.5917344 38.838906 6.3910313 38.628906 6.2070312 L 38.474609 6.0742188 C 35.815609 3.8062188 33.084875 3.2097031 31.421875 2.8457031 L 30.494141 2.6367188 C 28.328141 2.2212187 26.04025 1.863875 23.669922 1.90625 z M 24.662109 3.9101562 C 25.567109 3.9367812 26.486953 4.0232969 27.439453 4.1542969 C 24.181453 9.0052969 24.737094 15.565109 25.496094 21.287109 C 24.502094 21.210109 23.483891 21.188281 22.462891 21.238281 C 21.884891 17.832281 21.280625 13.5565 20.765625 10.1875 C 20.611625 8.6705 20.745203 7.138875 21.158203 5.671875 C 21.568203 4.788875 21.606609 4.2904375 21.974609 4.0234375 C 22.868109 3.9159375 23.757109 3.8835313 24.662109 3.9101562 z M 21.433594 4.1191406 C 20.990594 4.4941406 20.667266 5.0859375 20.447266 5.8359375 C 20.078266 7.3609375 19.953172 8.9330469 20.076172 10.498047 C 20.320172 14.152047 20.983906 17.759531 22.003906 21.269531 C 21.039906 21.337531 20.081203 21.465875 19.158203 21.671875 C 18.458203 19.258875 18.581469 16.516937 18.355469 13.960938 C 18.126469 11.038937 17.165406 8.2708125 15.941406 6.6328125 C 15.857406 6.4328125 15.867578 6.332 15.892578 6.25 C 16.424578 6.094 16.948844 5.9035 17.464844 5.6875 C 17.525844 5.7215 17.587578 5.7548281 17.642578 5.7988281 L 17.662109 5.7753906 C 17.608109 5.7373906 17.551141 5.7087813 17.494141 5.6757812 C 17.936141 5.4897812 18.372922 5.2984687 18.794922 5.1054688 C 19.648922 4.6574687 20.553594 4.3311406 21.433594 4.1191406 z M 17.642578 5.7988281 L 17.630859 5.8125 L 17.662109 5.8125 C 17.656109 5.8075 17.649578 5.8048281 17.642578 5.7988281 z M 27.494141 4.1601562 C 28.329141 4.2761562 29.187891 4.4227031 30.087891 4.5957031 L 31.025391 4.8066406 C 31.718391 4.9586406 32.575719 5.1522812 33.511719 5.4882812 C 31.891719 8.3852813 30.798781 11.549937 30.300781 14.835938 C 29.942781 17.211938 29.77925 19.609766 29.78125 22.009766 C 28.56325 21.676766 27.169172 21.430687 25.701172 21.304688 C 25.643172 20.029688 25.601297 18.732906 25.654297 18.003906 C 25.828297 15.588906 26.030141 8.1211562 27.494141 4.1601562 z M 33.767578 5.5761719 C 34.843578 5.9891719 36.015781 6.60475 37.175781 7.59375 L 37.306641 7.7089844 C 37.490641 7.8699844 37.673422 8.0426094 37.857422 8.2246094 L 38.068359 8.4375 C 38.226359 8.6025 38.384219 8.7770938 38.574219 8.9960938 C 38.649219 9.0820938 38.723875 9.1678594 38.796875 9.2558594 C 38.906875 9.3908594 39.014047 9.5356875 39.123047 9.6796875 C 37.275047 10.397687 34.207062 17.212047 33.789062 23.373047 C 33.716062 23.502047 33.640266 23.629766 33.572266 23.759766 C 32.737266 23.057766 31.552328 22.549938 30.486328 22.210938 C 30.318328 22.157937 30.136937 22.110547 29.960938 22.060547 C 30.120938 19.644547 30.347406 17.112266 30.566406 14.822266 C 31.276406 11.062266 33.095578 9.1341719 33.767578 5.5761719 z M 15.580078 6.3457031 C 15.629078 6.4857031 15.705641 6.6174687 15.806641 6.7304688 C 17.018641 8.3744688 17.253625 11.048844 17.515625 13.964844 C 17.738625 16.535844 17.994359 19.292703 18.943359 21.720703 C 18.134359 21.913703 17.358953 22.168328 16.626953 22.486328 C 16.028953 20.323328 15.743969 17.884687 15.292969 15.679688 C 14.680969 12.697688 14.600844 10.028844 13.589844 9.2148438 C 13.201844 8.6798437 12.163297 8.7271406 12.654297 7.7441406 C 12.771297 7.5341406 12.916641 7.3424844 13.056641 7.1464844 C 13.452641 6.9044844 13.872125 6.6992187 14.328125 6.5742188 C 14.746125 6.5372188 15.164078 6.4537031 15.580078 6.3457031 z M 12.722656 7.3476562 C 12.628656 7.4756563 12.53575 7.6059531 12.46875 7.7519531 C 12.28775 8.0859531 12.209141 8.46575 12.244141 8.84375 C 12.275141 9.04175 12.355609 9.229625 12.474609 9.390625 C 13.473609 10.187625 13.991656 12.720406 14.597656 15.691406 C 15.054656 17.930406 15.583578 20.407656 16.392578 22.597656 C 15.692578 22.920656 15.042125 23.308625 14.453125 23.765625 C 14.255125 23.040625 13.997016 22.329344 13.666016 21.652344 C 13.302016 19.610344 12.707156 17.611188 11.910156 15.742188 L 11.824219 15.515625 C 11.506219 14.676625 11.176734 13.809813 10.927734 13.007812 C 10.607734 11.606813 10.763187 10.121359 11.367188 8.8183594 L 11.488281 8.6445312 C 11.821281 8.1355312 12.240656 7.6986562 12.722656 7.3476562 z M 39.214844 9.8007812 C 39.216844 9.8027813 39.21675 9.8036406 39.21875 9.8066406 L 39.3125 9.9296875 C 39.3785 10.014688 39.442859 10.101406 39.505859 10.191406 C 39.593859 10.317406 39.679625 10.450938 39.765625 10.585938 L 39.855469 10.726562 C 40.206469 11.269562 40.494 11.758094 40.75 12.246094 C 40.772 14.381094 38.9685 16.573625 37.0625 18.890625 C 36.3205 19.791625 35.567719 20.708156 34.886719 21.660156 C 36.425719 17.720156 37.911844 13.794781 39.214844 9.8007812 z M 23.146484 23.230469 C 25.576474 23.174795 28.020172 23.527203 29.880859 24.119141 C 32.101859 24.825141 32.631344 25.565297 32.652344 25.779297 C 32.689344 26.025297 32.715375 26.324625 32.734375 26.640625 L 32.728516 26.666016 C 32.694516 26.829016 32.714813 26.986719 32.757812 27.136719 C 32.776812 27.746719 32.770328 28.403719 32.736328 29.011719 C 29.249328 27.109719 26.112453 26.472656 23.439453 26.472656 C 20.173453 26.472656 17.601641 27.424688 15.931641 28.179688 L 15.107422 25.822266 C 16.920922 24.047016 20.022212 23.302049 23.146484 23.230469 z M 18.058594 32.380859 L 17.605469 32.685547 C 17.797469 33.007547 18.045891 33.292344 18.337891 33.527344 C 18.567891 33.671344 18.836422 33.741516 19.107422 33.728516 C 19.246422 33.727516 19.383578 33.708922 19.517578 33.669922 L 21.029297 33.123047 C 21.132297 33.083047 21.241563 33.0625 21.351562 33.0625 C 21.517563 33.0515 21.683266 33.096453 21.822266 33.189453 C 22.013266 33.345453 22.1785 33.528375 22.3125 33.734375 L 22.742188 33.494141 L 22.742188 33.482422 C 22.556188 33.193422 22.323688 32.937609 22.054688 32.724609 C 21.838687 32.574609 21.581359 32.495 21.318359 32.5 C 21.230359 32.498 21.141547 32.514828 21.060547 32.548828 L 19.423828 33.095703 C 19.319828 33.127703 19.210562 33.141672 19.101562 33.138672 C 18.907563 33.152672 18.713688 33.099328 18.554688 32.986328 C 18.355687 32.813328 18.188594 32.608859 18.058594 32.380859 z M 34.849609 33.470703 C 34.693609 33.484703 34.550172 33.561594 34.451172 33.683594 C 34.332172 33.784594 34.256281 33.926031 34.238281 34.082031 C 34.227281 34.116031 34.227281 34.1535 34.238281 34.1875 C 34.590281 34.5595 35.040109 34.821312 35.537109 34.945312 C 36.034109 35.098312 36.531578 35.245813 37.017578 35.382812 C 37.509578 35.545812 37.927266 35.879266 38.197266 36.322266 C 38.202266 36.342266 38.202266 36.362812 38.197266 36.382812 C 38.197266 36.475813 37.973969 36.627703 37.542969 36.845703 C 37.324969 36.971703 36.997172 37.249062 36.451172 37.664062 C 36.110172 37.943063 35.745375 38.190344 35.359375 38.402344 C 35.031375 38.548344 34.743438 38.773641 34.523438 39.056641 C 34.518437 39.061641 34.513766 39.066266 34.509766 39.072266 C 34.335766 39.272266 34.356641 39.577953 34.556641 39.751953 C 34.660641 39.851953 34.800313 39.906297 34.945312 39.904297 C 35.048313 39.902297 35.149234 39.876125 35.240234 39.828125 C 35.944234 39.384125 36.620625 38.896141 37.265625 38.369141 C 37.919625 37.827141 38.602594 37.318703 39.308594 36.845703 C 39.701594 36.605703 39.892578 36.354656 39.892578 36.097656 C 39.879578 35.925656 39.785625 35.769734 39.640625 35.677734 C 38.798802 34.921852 37.805588 34.360571 36.728516 34.023438 L 35.935547 33.679688 C 35.668547 33.558687 35.381844 33.487703 35.089844 33.470703 C 35.009844 33.459703 34.928609 33.459703 34.849609 33.470703 z M 13.066406 33.527344 C 12.368406 34.051344 11.604922 34.480688 10.794922 34.804688 C 9.9919219 35.135688 9.2312969 35.561266 8.5292969 36.072266 C 8.1882969 36.377266 7.9894219 36.810578 7.9824219 37.267578 C 8.0224219 37.440578 8.1455469 37.584391 8.3105469 37.650391 C 8.4575469 37.699391 8.6117656 37.758359 8.7597656 37.818359 C 10.252766 38.451359 11.653844 39.133328 12.964844 39.861328 C 13.138844 39.987328 13.302078 40.125391 13.455078 40.275391 C 13.555078 40.319391 13.662484 40.341797 13.771484 40.341797 C 14.040484 40.343797 14.302766 40.251078 14.509766 40.080078 C 14.720766 39.930078 14.831828 39.676922 14.798828 39.419922 C 14.807828 39.230922 14.694531 39.056328 14.519531 38.986328 L 12.259766 37.992188 C 11.509766 37.674188 10.778219 37.309391 10.074219 36.900391 C 10.568219 36.285391 11.234328 35.829844 11.986328 35.589844 C 12.733328 35.348844 13.422719 34.9565 14.011719 34.4375 C 14.096719 34.3565 14.143578 34.243953 14.142578 34.126953 C 14.138578 33.961953 14.060687 33.807031 13.929688 33.707031 C 13.773687 33.587031 13.581766 33.523344 13.384766 33.527344 L 13.066406 33.527344 z M 28.869141 35.072266 C 28.429141 35.056266 27.999828 35.215672 27.673828 35.513672 C 27.306828 35.876672 27.152672 36.40225 27.263672 36.90625 C 27.313672 37.38225 27.504547 37.833172 27.810547 38.201172 C 28.068547 38.545172 28.472344 38.746094 28.902344 38.746094 C 29.184344 38.742094 29.460078 38.668297 29.705078 38.529297 C 30.242078 38.145297 30.524406 37.496797 30.441406 36.841797 C 30.414406 36.104797 30.240484 35.607187 29.896484 35.367188 C 29.592484 35.165188 29.234141 35.062266 28.869141 35.072266 z M 20.394531 35.109375 C 19.954531 35.092375 19.525219 35.249875 19.199219 35.546875 C 18.830219 35.908875 18.673203 36.434453 18.783203 36.939453 C 18.836203 37.414453 19.027078 37.864375 19.330078 38.234375 C 19.587078 38.578375 19.991875 38.780297 20.421875 38.779297 C 20.703875 38.774297 20.978609 38.7005 21.224609 38.5625 C 21.715609 38.2675 21.957031 37.71 21.957031 36.875 C 22.020031 36.327 21.821875 35.780391 21.421875 35.400391 C 21.117875 35.199391 20.758531 35.098375 20.394531 35.109375 z M 20.373047 36.283203 C 20.675047 36.283203 20.919922 36.528078 20.919922 36.830078 C 20.919922 37.132078 20.675047 37.376953 20.373047 37.376953 C 20.071047 37.376953 19.826172 37.132078 19.826172 36.830078 C 19.826172 36.528078 20.071047 36.283203 20.373047 36.283203 z M 28.695312 36.345703 C 28.996312 36.344703 29.242188 36.588625 29.242188 36.890625 C 29.242188 37.192625 28.996312 37.4375 28.695312 37.4375 C 28.393313 37.4375 28.150391 37.192625 28.150391 36.890625 C 28.150391 36.588625 28.393312 36.345703 28.695312 36.345703 z M 23.404297 40.179688 C 23.392297 40.191688 23.384906 40.205656 23.378906 40.222656 L 23.378906 40.267578 C 23.453906 40.476578 23.548109 40.676187 23.662109 40.867188 C 23.765109 41.050187 23.894922 41.219234 24.044922 41.365234 C 24.179922 41.506234 24.337672 41.622984 24.513672 41.708984 C 24.686672 41.781984 24.872547 41.822125 25.060547 41.828125 L 25.082031 41.851562 C 25.233031 41.852562 25.382438 41.824531 25.523438 41.769531 C 25.658438 41.714531 25.786297 41.643594 25.904297 41.558594 C 26.016297 41.468594 26.121797 41.370672 26.216797 41.263672 C 26.306797 41.161672 26.386078 41.052547 26.455078 40.935547 C 26.521078 40.832547 26.580859 40.725281 26.630859 40.613281 C 26.669859 40.532281 26.701609 40.449281 26.724609 40.363281 L 26.724609 40.314453 C 26.713609 40.299453 26.704266 40.282625 26.697266 40.265625 C 26.555266 40.484625 26.378828 40.676891 26.173828 40.837891 C 26.016828 40.985891 25.829953 41.099875 25.626953 41.171875 C 25.421953 41.242875 25.205281 41.277391 24.988281 41.275391 C 24.803281 41.278391 24.618406 41.252219 24.441406 41.199219 C 24.289406 41.151219 24.147484 41.076469 24.021484 40.980469 C 23.893484 40.877469 23.777734 40.761813 23.677734 40.632812 C 23.572734 40.490812 23.480297 40.338688 23.404297 40.179688 z M 21.957031 42.275391 C 19.773031 42.390391 18.500125 45.195422 15.453125 42.607422 C 14.623125 47.576422 20.695406 48.069219 23.191406 45.824219 C 24.917406 44.284219 24.431031 42.138391 21.957031 42.275391 z M 26.960938 42.275391 C 24.875352 42.404019 24.549844 44.381406 26.167969 45.824219 C 28.663969 48.068219 34.734297 47.576422 33.904297 42.607422 C 30.857297 45.195422 29.585391 42.389391 27.400391 42.275391 C 27.245766 42.266828 27.099977 42.266815 26.960938 42.275391 z"/></svg>